<svg xmlns="http://www.w3.org/2000/svg" width="128" height="128" viewBox="0 0 128 128">
<defs><linearGradient id="glass" x1="0" x2="1" y1="0" y2="1"><stop stop-color="#fffde8"/><stop offset=".35" stop-color="#8bb773"/><stop offset="1" stop-color="#425369"/></linearGradient></defs>
<ellipse cx="65" cy="117" rx="35" ry="7" fill="#273847" opacity=".18"/>
<path d="M47 22h34v22c1 8 18 14 20 32l-2 28c-3 14-67 14-70 0l-2-28c2-18 19-24 20-32z" fill="url(#glass)" stroke="#35414c" stroke-width="4"/>
<path d="M35 75q29 7 58 0l-1 28q-27 12-56 0z" fill="#8bb773"/>
<rect x="44" y="12" width="40" height="17" rx="4" fill="#9c704c" stroke="#35414c" stroke-width="4"/>
<path d="M52 16v8m9-8v8m10-8v8" stroke="#d6b184" stroke-width="3"/>
<path d="M39 65q4-11 14-15V35" fill="none" stroke="#ffffff" stroke-opacity=".7" stroke-width="5" stroke-linecap="round"/>
<rect x="41" y="68" width="46" height="42" rx="9" fill="#fff4d6" stroke="#b99d70" stroke-width="2"/>
<g fill="#35414c" stroke="#35414c" stroke-width="2" stroke-linejoin="round" stroke-linecap="round"><path d="M51 85c0-16 26-16 26 0v9h-6v8H57v-8h-6z"/><path d="M57 85h2m10 0h2" stroke="#fff4d6" stroke-width="5"/></g>
</svg>