<svg xmlns="http://www.w3.org/2000/svg" width="128" height="128"><rect width="128" height="128" fill="#de7256"/><g fill="#f4d596" stroke="#674f49" stroke-width="2"><g transform="translate(0 0) scale(.3)"><path d="M25 50h68v29H69l-8 30H42l4-30H25z"/><path d="M83 45h31v8H83z"/><path d="M31 57h23M34 69h17" fill="none"/><path d="M40 80l-18 30M75 80l24 30M35 110h67"/><path d="M83 109q-21-17 3-37-4 16 10 17 9-15 5-25 30 28-5 47z" fill="#eb8056"/></g><g transform="translate(42 0) scale(.3)"><path d="M25 50h68v29H69l-8 30H42l4-30H25z"/><path d="M83 45h31v8H83z"/><path d="M31 57h23M34 69h17" fill="none"/><path d="M40 80l-18 30M75 80l24 30M35 110h67"/><path d="M83 109q-21-17 3-37-4 16 10 17 9-15 5-25 30 28-5 47z" fill="#eb8056"/></g><g transform="translate(84 0) scale(.3)"><path d="M25 50h68v29H69l-8 30H42l4-30H25z"/><path d="M83 45h31v8H83z"/><path d="M31 57h23M34 69h17" fill="none"/><path d="M40 80l-18 30M75 80l24 30M35 110h67"/><path d="M83 109q-21-17 3-37-4 16 10 17 9-15 5-25 30 28-5 47z" fill="#eb8056"/></g><g transform="translate(0 42) scale(.3)"><path d="M25 50h68v29H69l-8 30H42l4-30H25z"/><path d="M83 45h31v8H83z"/><path d="M31 57h23M34 69h17" fill="none"/><path d="M40 80l-18 30M75 80l24 30M35 110h67"/><path d="M83 109q-21-17 3-37-4 16 10 17 9-15 5-25 30 28-5 47z" fill="#eb8056"/></g><g transform="translate(42 42) scale(.3)"><path d="M25 50h68v29H69l-8 30H42l4-30H25z"/><path d="M83 45h31v8H83z"/><path d="M31 57h23M34 69h17" fill="none"/><path d="M40 80l-18 30M75 80l24 30M35 110h67"/><path d="M83 109q-21-17 3-37-4 16 10 17 9-15 5-25 30 28-5 47z" fill="#eb8056"/></g><g transform="translate(84 42) scale(.3)"><path d="M25 50h68v29H69l-8 30H42l4-30H25z"/><path d="M83 45h31v8H83z"/><path d="M31 57h23M34 69h17" fill="none"/><path d="M40 80l-18 30M75 80l24 30M35 110h67"/><path d="M83 109q-21-17 3-37-4 16 10 17 9-15 5-25 30 28-5 47z" fill="#eb8056"/></g><g transform="translate(0 84) scale(.3)"><path d="M25 50h68v29H69l-8 30H42l4-30H25z"/><path d="M83 45h31v8H83z"/><path d="M31 57h23M34 69h17" fill="none"/><path d="M40 80l-18 30M75 80l24 30M35 110h67"/><path d="M83 109q-21-17 3-37-4 16 10 17 9-15 5-25 30 28-5 47z" fill="#eb8056"/></g><g transform="translate(42 84) scale(.3)"><path d="M25 50h68v29H69l-8 30H42l4-30H25z"/><path d="M83 45h31v8H83z"/><path d="M31 57h23M34 69h17" fill="none"/><path d="M40 80l-18 30M75 80l24 30M35 110h67"/><path d="M83 109q-21-17 3-37-4 16 10 17 9-15 5-25 30 28-5 47z" fill="#eb8056"/></g><g transform="translate(84 84) scale(.3)"><path d="M25 50h68v29H69l-8 30H42l4-30H25z"/><path d="M83 45h31v8H83z"/><path d="M31 57h23M34 69h17" fill="none"/><path d="M40 80l-18 30M75 80l24 30M35 110h67"/><path d="M83 109q-21-17 3-37-4 16 10 17 9-15 5-25 30 28-5 47z" fill="#eb8056"/></g></g><path d="M0 4h128M0 124h128" stroke="#efcc91" stroke-width="5"/></svg>