<svg xmlns="http://www.w3.org/2000/svg" width="128" height="128" viewBox="0 0 128 128"><defs><linearGradient id="paint" x2=".8" y2="1"><stop stop-color="#65a5ab"/><stop offset="1" stop-color="#f5db94"/></linearGradient></defs><rect x="3" y="3" width="122" height="122" rx="19" fill="#fcf0d7" stroke="#805c47" stroke-width="3"/><g transform="translate(1 3)" fill="#9b7558" opacity=".25"><path d="M32 49l61-22 14 26-61 27z"/><path d="M67 70l-7 22M59 87l-22 20M62 87l27 20M39 48l12 29M83 32l13 28" fill="none"/></g><g fill="url(#paint)" stroke="#5e4539" stroke-width="3" stroke-linejoin="round" stroke-linecap="round"><path d="M32 49l61-22 14 26-61 27z"/><path d="M67 70l-7 22M59 87l-22 20M62 87l27 20M39 48l12 29M83 32l13 28" fill="none"/></g><rect x="3" y="3" width="38" height="38" rx="10" fill="#f7e4b8" stroke="#805c47" stroke-width="2"/><g fill="none" stroke="#5e4539" stroke-width="2.6" stroke-linecap="round" stroke-linejoin="round"><circle cx="12" cy="13" r="5"/><circle cx="29" cy="13" r="5"/><circle cx="12" cy="29" r="5"/><circle cx="29" cy="29" r="5"/><path d="M39 118l1 -4"/><path d="M50 118l-3 -9"/><path d="M61 118l-2 -4"/><path d="M72 118l1 -4"/><path d="M83 118l-3 -9"/></g></svg>