<svg xmlns="http://www.w3.org/2000/svg" width="128" height="128" viewBox="0 0 128 128"><defs><linearGradient id="paint" x2=".8" y2="1"><stop stop-color="#7988c2"/><stop offset="1" stop-color="#f5db94"/></linearGradient></defs><rect x="3" y="3" width="122" height="122" rx="19" fill="#fcf0d7" stroke="#805c47" stroke-width="3"/><g transform="translate(1 3)" fill="#9b7558" opacity=".25"><ellipse cx="65" cy="53" rx="30" ry="35"/><path d="M63 88l-5 9h13l-6-9M65 98q-15 13 0 19M46 39q9-14 20-12" fill="none"/></g><g fill="url(#paint)" stroke="#5e4539" stroke-width="3" stroke-linejoin="round" stroke-linecap="round"><ellipse cx="65" cy="53" rx="30" ry="35"/><path d="M63 88l-5 9h13l-6-9M65 98q-15 13 0 19M46 39q9-14 20-12" fill="none"/></g><rect x="3" y="3" width="38" height="38" rx="10" fill="#f7e4b8" stroke="#805c47" stroke-width="2"/><g fill="none" stroke="#5e4539" stroke-width="2.6" stroke-linecap="round" stroke-linejoin="round"><path d="M7 18h14l-3-8 15 13-15 10 3-8H7"/><path d="M39 118l0 -8"/><path d="M50 118l-3 -9"/><path d="M61 118l0 -7"/><path d="M72 118l0 -4"/><path d="M83 118l-3 -5"/></g></svg>