<svg xmlns="http://www.w3.org/2000/svg" width="128" height="128" viewBox="0 0 128 128"><defs><linearGradient id="paint" x2=".8" y2="1"><stop stop-color="#ca7395"/><stop offset="1" stop-color="#f5db94"/></linearGradient></defs><rect x="3" y="3" width="122" height="122" rx="19" fill="#fcf0d7" stroke="#805c47" stroke-width="3"/><g transform="translate(1 3)" fill="#9b7558" opacity=".25"><path d="M65 28q-21 4-25 23L28 93l27-8 10 14 11-14 25 8-12-42q-5-20-24-23z"/><path d="M54 52l11 12 12-12M42 82l13-15M88 82L76 67" fill="none"/></g><g fill="url(#paint)" stroke="#5e4539" stroke-width="3" stroke-linejoin="round" stroke-linecap="round"><path d="M65 28q-21 4-25 23L28 93l27-8 10 14 11-14 25 8-12-42q-5-20-24-23z"/><path d="M54 52l11 12 12-12M42 82l13-15M88 82L76 67" fill="none"/></g><rect x="3" y="3" width="38" height="38" rx="10" fill="#f7e4b8" stroke="#805c47" stroke-width="2"/><g fill="none" stroke="#5e4539" stroke-width="2.6" stroke-linecap="round" stroke-linejoin="round"><path d="M21 18v17M21 20l-11 6M21 24l11-5"/><circle cx="21" cy="12" r="8"/><path d="M39 118l3 -5"/><path d="M50 118l1 -7"/><path d="M61 118l-2 -7"/><path d="M72 118l-3 -6"/><path d="M83 118l0 -7"/></g></svg>