<svg xmlns="http://www.w3.org/2000/svg" width="128" height="128" viewBox="0 0 128 128"><defs><linearGradient id="paint" x2=".8" y2="1"><stop stop-color="#de7256"/><stop offset="1" stop-color="#f5db94"/></linearGradient></defs><rect x="3" y="3" width="122" height="122" rx="19" fill="#fcf0d7" stroke="#805c47" stroke-width="3"/><g transform="translate(1 3)" fill="#9b7558" opacity=".25"><ellipse cx="66" cy="77" rx="34" ry="19"/><path d="M32 77v15q33 26 68 0V77M40 56h52v20H40z"/><ellipse cx="66" cy="56" rx="26" ry="15"/><path d="M61 48v17M72 48v17" fill="none"/></g><g fill="url(#paint)" stroke="#5e4539" stroke-width="3" stroke-linejoin="round" stroke-linecap="round"><ellipse cx="66" cy="77" rx="34" ry="19"/><path d="M32 77v15q33 26 68 0V77M40 56h52v20H40z"/><ellipse cx="66" cy="56" rx="26" ry="15"/><path d="M61 48v17M72 48v17" fill="none"/></g><rect x="3" y="3" width="38" height="38" rx="10" fill="#f7e4b8" stroke="#805c47" stroke-width="2"/><g fill="none" stroke="#5e4539" stroke-width="2.6" stroke-linecap="round" stroke-linejoin="round"><circle cx="12" cy="13" r="5"/><circle cx="29" cy="13" r="5"/><circle cx="12" cy="29" r="5"/><circle cx="29" cy="29" r="5"/><path d="M39 118l2 -4"/><path d="M50 118l3 -4"/><path d="M61 118l-1 -5"/><path d="M72 118l-2 -9"/><path d="M83 118l2 -8"/></g></svg>