<svg xmlns="http://www.w3.org/2000/svg" width="128" height="128" viewBox="0 0 128 128"><defs><linearGradient id="paint" x2=".8" y2="1"><stop stop-color="#65a5ab"/><stop offset="1" stop-color="#f5db94"/></linearGradient></defs><rect x="3" y="3" width="122" height="122" rx="19" fill="#fcf0d7" stroke="#805c47" stroke-width="3"/><g transform="translate(1 3)" fill="#9b7558" opacity=".25"><circle cx="65" cy="61" r="33"/><circle cx="65" cy="61" r="11"/><path d="M49 90l-15 25M34 115l-9-6"/><path d="M78 88q35-35 37 12M76 88l1-12M78 88l12 2" fill="none"/></g><g fill="url(#paint)" stroke="#5e4539" stroke-width="3" stroke-linejoin="round" stroke-linecap="round"><circle cx="65" cy="61" r="33"/><circle cx="65" cy="61" r="11"/><path d="M49 90l-15 25M34 115l-9-6"/><path d="M78 88q35-35 37 12M76 88l1-12M78 88l12 2" fill="none"/></g><rect x="3" y="3" width="38" height="38" rx="10" fill="#f7e4b8" stroke="#805c47" stroke-width="2"/><g fill="none" stroke="#5e4539" stroke-width="2.6" stroke-linecap="round" stroke-linejoin="round"><path d="M10 28L21 8l11 20zM10 32h22"/><path d="M39 118l0 -7"/><path d="M50 118l1 -6"/><path d="M61 118l-3 -4"/><path d="M72 118l3 -9"/><path d="M83 118l-1 -9"/></g></svg>